<svg width="57" height="46" viewBox="0 0 57 46" fill="none" xmlns="http://www.w3.org/2000/svg">
<path d="M54.3281 0H2.67188C1.20234 0 0 1.20193 0 2.67095V43.329C0 44.7981 1.20234 46 2.67188 46H54.3281C55.7977 46 57 44.7981 57 43.329V2.67095C57 1.20193 55.7977 0 54.3281 0ZM22.491 6.12093H50.8689V10.8592H19.3951L22.491 6.12093ZM33.1544 21.6757V18.231L45.4905 23.564V26.5056L33.1544 31.876V28.4065L41.7632 25.0232L33.1544 21.6757ZM32.0135 15.6313L27.5132 34.2158H24.9758L29.4263 15.6313H32.0135ZM23.834 28.3931V31.8627L11.5095 26.5047V23.5382L23.834 18.2052V21.6997L15.2377 24.985L23.834 28.3931ZM15.3811 6.9605C16.1916 6.9605 16.8488 7.61666 16.8488 8.42596C16.8488 9.23526 16.1916 9.89142 15.3811 9.89142C14.5706 9.89142 13.9133 9.23526 13.9133 8.42596C13.9125 7.61666 14.5697 6.9605 15.3811 6.9605ZM11.49 6.9605C12.3004 6.9605 12.9577 7.61666 12.9577 8.42596C12.9577 9.23526 12.3004 9.89142 11.49 9.89142C10.6795 9.89142 10.0222 9.23526 10.0222 8.42596C10.0222 7.61666 10.6795 6.9605 11.49 6.9605ZM7.59881 6.9605C8.40928 6.9605 9.06656 7.61666 9.06656 8.42596C9.06656 9.23526 8.40928 9.89142 7.59881 9.89142C6.78834 9.89142 6.13106 9.23526 6.13106 8.42596C6.13106 7.61666 6.78834 6.9605 7.59881 6.9605ZM1.99678 42.6524L6.02686 39.5924H13.1109L9.09417 42.6524H1.99678ZM12.1784 42.6524L16.2085 39.5924H40.7906L44.8207 42.6524H12.1784ZM47.9049 42.6524L43.8882 39.5924H50.9722L55.0032 42.6524H47.9049Z" fill="white"/>
</svg>
