<svg width="32" height="32" viewBox="0 0 32 32" fill="none" xmlns="http://www.w3.org/2000/svg">
<path d="M11.7692 26.7197C4.07692 28.8599 4.07692 23.1529 1 22.4395M22.5385 31V25.4785C22.5962 24.7981 22.4971 24.1142 22.2477 23.4722C21.9984 22.8301 21.6045 22.2446 21.0923 21.7547C25.9231 21.2553 31 19.5575 31 11.7674C30.9996 9.7754 30.1734 7.85981 28.6923 6.41708C29.3936 4.67431 29.344 2.74797 28.5538 1.03823C28.5538 1.03823 26.7385 0.538864 22.5385 3.14982C19.0123 2.26355 15.2954 2.26355 11.7692 3.14982C7.56923 0.538864 5.75385 1.03823 5.75385 1.03823C4.96366 2.74797 4.91407 4.67431 5.61538 6.41708C4.12327 7.87051 3.29619 9.80342 3.30769 11.8102C3.30769 19.5432 8.38461 21.241 13.2154 21.7975C12.7092 22.2825 12.3189 22.861 12.0697 23.4952C11.8205 24.1294 11.7182 24.8051 11.7692 25.4785V31" stroke="#757575" stroke-width="2" stroke-linecap="round" stroke-linejoin="round"/>
</svg>
