<svg width="30" height="30" viewBox="0 0 30 30" fill="none" xmlns="http://www.w3.org/2000/svg">
<g clip-path="url(#clip0_22_167)">
<path d="M21 9.47368C23.3869 9.47368 25.6761 10.4718 27.364 12.2485C29.0518 14.0251 30 16.4348 30 18.9474V30H24V18.9474C24 18.1098 23.6839 17.3066 23.1213 16.7144C22.5587 16.1222 21.7956 15.7895 21 15.7895C20.2044 15.7895 19.4413 16.1222 18.8787 16.7144C18.3161 17.3066 18 18.1098 18 18.9474V30H12V18.9474C12 16.4348 12.9482 14.0251 14.636 12.2485C16.3239 10.4718 18.6131 9.47368 21 9.47368Z" fill="#532020"/>
<path d="M6 11.0526H0V30H6V11.0526Z" fill="#532020"/>
<path d="M3 6.31579C4.65685 6.31579 6 4.90195 6 3.15789C6 1.41384 4.65685 0 3 0C1.34315 0 0 1.41384 0 3.15789C0 4.90195 1.34315 6.31579 3 6.31579Z" fill="#532020"/>
<path d="M21 9.47368C23.3869 9.47368 25.6761 10.4718 27.364 12.2485C29.0518 14.0251 30 16.4348 30 18.9474V30H24V18.9474C24 18.1098 23.6839 17.3066 23.1213 16.7144C22.5587 16.1222 21.7956 15.7895 21 15.7895C20.2044 15.7895 19.4413 16.1222 18.8787 16.7144C18.3161 17.3066 18 18.1098 18 18.9474V30H12V18.9474C12 16.4348 12.9482 14.0251 14.636 12.2485C16.3239 10.4718 18.6131 9.47368 21 9.47368Z" stroke="#C7C7CC" stroke-width="2" stroke-linecap="round" stroke-linejoin="round"/>
<path d="M6 11.0526H0V30H6V11.0526Z" stroke="#C7C7CC" stroke-width="2" stroke-linecap="round" stroke-linejoin="round"/>
<path d="M3 6.31579C4.65685 6.31579 6 4.90195 6 3.15789C6 1.41384 4.65685 0 3 0C1.34315 0 0 1.41384 0 3.15789C0 4.90195 1.34315 6.31579 3 6.31579Z" stroke="#C7C7CC" stroke-width="2" stroke-linecap="round" stroke-linejoin="round"/>
</g>
<defs>
<clipPath id="clip0_22_167">
<rect width="30" height="30" fill="white"/>
</clipPath>
</defs>
</svg>
