<svg width="20" height="20" viewBox="0 0 20 20" fill="none" xmlns="http://www.w3.org/2000/svg">
<path d="M10 10C9.08334 10 8.29862 9.67365 7.64584 9.02087C6.99307 8.3681 6.66668 7.58337 6.66668 6.66671C6.66668 5.75004 6.99307 4.96532 7.64584 4.31254C8.29862 3.65976 9.08334 3.33337 10 3.33337C10.9167 3.33337 11.7014 3.65976 12.3542 4.31254C13.007 4.96532 13.3333 5.75004 13.3333 6.66671C13.3333 7.58337 13.007 8.3681 12.3542 9.02087C11.7014 9.67365 10.9167 10 10 10ZM3.33334 16.6667V14.3334C3.33334 13.8612 3.45487 13.4271 3.69793 13.0313C3.94098 12.6355 4.2639 12.3334 4.66668 12.125C5.52779 11.6945 6.40279 11.3716 7.29168 11.1563C8.18057 10.941 9.08334 10.8334 10 10.8334C10.9167 10.8334 11.8195 10.941 12.7083 11.1563C13.5972 11.3716 14.4722 11.6945 15.3333 12.125C15.7361 12.3334 16.059 12.6355 16.3021 13.0313C16.5451 13.4271 16.6667 13.8612 16.6667 14.3334V16.6667H3.33334ZM5.00001 15H15V14.3334C15 14.1806 14.9618 14.0417 14.8854 13.9167C14.809 13.7917 14.7083 13.6945 14.5833 13.625C13.8333 13.25 13.0764 12.9688 12.3125 12.7813C11.5486 12.5938 10.7778 12.5 10 12.5C9.22223 12.5 8.4514 12.5938 7.68751 12.7813C6.92362 12.9688 6.16668 13.25 5.41668 13.625C5.29168 13.6945 5.19098 13.7917 5.11459 13.9167C5.0382 14.0417 5.00001 14.1806 5.00001 14.3334V15ZM10 8.33337C10.4583 8.33337 10.8507 8.17018 11.1771 7.84379C11.5035 7.5174 11.6667 7.12504 11.6667 6.66671C11.6667 6.20837 11.5035 5.81601 11.1771 5.48962C10.8507 5.16324 10.4583 5.00004 10 5.00004C9.54168 5.00004 9.14932 5.16324 8.82293 5.48962C8.49654 5.81601 8.33334 6.20837 8.33334 6.66671C8.33334 7.12504 8.49654 7.5174 8.82293 7.84379C9.14932 8.17018 9.54168 8.33337 10 8.33337Z" fill="#FEF7FF"/>
</svg>
